<svg width="18" height="16" viewBox="0 0 18 16" fill="none" xmlns="http://www.w3.org/2000/svg">
<path d="M7.25 7.4375C8.21875 6.9375 8.75 6.21875 8.75 5.125C8.75 2.90625 7.09375 2.375 5.21875 2.375H0V13.4375H5.34375C7.375 13.4375 9.25 12.4688 9.25 10.2188C9.25 8.84375 8.59375 7.8125 7.25 7.4375ZM2.40625 4.25H4.71875C5.59375 4.25 6.375 4.5 6.375 5.53125C6.375 6.46875 5.75 6.84375 4.875 6.84375H2.40625V4.25ZM5.03125 11.5625H2.40625V8.5H5.0625C6.15625 8.5 6.8125 8.96875 6.8125 10.0938C6.8125 11.2188 6 11.5625 5.03125 11.5625ZM16.2188 4.03125V2.9375H11.75V4.03125H16.2188ZM18 9.5625C18 7.1875 16.5938 5.1875 14.0938 5.1875C11.625 5.1875 9.96875 7.03125 9.96875 9.4375C9.96875 11.9375 11.5625 13.6562 14.0938 13.6562C16 13.6562 17.25 12.7812 17.8438 10.9688H15.9062C15.6875 11.6562 14.8125 12 14.1562 12C12.875 12 12.1875 11.25 12.1875 9.96875H17.9688C17.9688 9.84375 18 9.6875 18 9.5625ZM12.1875 8.5625C12.25 7.53125 12.9688 6.875 14 6.875C15.125 6.875 15.6875 7.5 15.7812 8.5625H12.1875Z" fill="black"/>
</svg>
