<svg width="18" height="17" viewBox="0 0 18 17" fill="none" xmlns="http://www.w3.org/2000/svg">
<path d="M9.0001 16.3C8.7001 16.3 8.3001 16.2 8.0001 16C7.7001 15.8 7.4001 15.6 7.3001 15.3C7.1001 15 7.2001 14.6 7.5001 14.4C7.8001 14.2 8.2001 14.3 8.4001 14.6C8.5001 14.7 8.5001 14.8 8.6001 14.8C9.0001 15.1 9.4001 15 9.6001 14.7C9.8001 14.4 10.2001 14.3 10.5001 14.5C10.8001 14.7 10.9001 15.1 10.7001 15.4C10.4001 16 9.7001 16.3 9.0001 16.3Z" fill="black"/>
<path d="M13.4 10.3C13.1 10.3 12.8 10.1 12.8 9.80001C12.5 8.70001 12.3 7.50001 12.4 6.30001C12.4 5.90001 12.7 5.60001 13.1 5.60001C13.5 5.60001 13.8 5.90001 13.8 6.30001C13.8 7.40001 13.9 8.40001 14.2 9.40001C14.3 9.80001 14.1 10.1 13.7 10.2C13.5 10.3 13.5 10.3 13.4 10.3Z" fill="black"/>
<path d="M12.3 13H3.00005C2.70005 13 2.40005 12.8 2.40005 12.5C2.30005 12.2 2.40005 11.9 2.70005 11.8C2.70005 11.8 4.40005 10.5 4.40005 6.4C4.40005 5.9 4.50005 5.5 4.60005 5C4.60005 4.6 5.00005 4.4 5.40005 4.5C5.70005 4.6 5.90005 5 5.80005 5.4C5.70005 5.7 5.70005 6 5.70005 6.3C5.70005 9 5.00005 10.7 4.40005 11.7H12.3C12.7 11.7 13 12 13 12.4C13 12.8 12.7 13 12.3 13Z" fill="black"/>
<path d="M13 7.00001C12.6 7.00001 12.3 6.70001 12.3 6.30001C12.3 4.50001 10.8 3.00001 9 3.00001C8.3 3.00001 7.7 3.20001 7.1 3.60001C6.8 3.80001 6.4 3.70001 6.2 3.40001C6 3.10001 6.1 2.60001 6.4 2.40001C7.2 1.90001 8.1 1.70001 9 1.70001C11.6 1.70001 13.7 3.80001 13.7 6.40001C13.7 6.70001 13.4 7.00001 13 7.00001Z" fill="black"/>
<path d="M16.3001 17C16.1001 17 16.0001 16.9 15.8001 16.8L1.2001 2.10001C0.900098 1.80001 0.900098 1.40001 1.2001 1.20001C1.5001 0.900006 1.9001 0.900006 2.1001 1.20001L16.8001 15.9C17.1001 16.2 17.1001 16.6 16.8001 16.8C16.7001 16.9 16.5001 17 16.3001 17Z" fill="black"/>
</svg>
