<svg width="16" height="16" viewBox="0 0 16 16" fill="none" xmlns="http://www.w3.org/2000/svg">
<path d="M14 12H2.00005C1.70005 12 1.40005 11.8 1.40005 11.5C1.30005 11.2 1.40005 10.9 1.70005 10.8C1.70005 10.8 3.40005 9.50001 3.40005 5.40001C3.40005 2.80001 5.50005 0.700012 8.10005 0.700012C10.7 0.700012 12.8 2.80001 12.8 5.40001C12.8 9.60001 14.5 10.8 14.5 10.9C14.7 11.1 14.8 11.4 14.8 11.6C14.5 11.8 14.3 12 14 12ZM3.40005 10.7H12.5C11.9 9.70001 11.3 8.00001 11.3 5.40001C11.3 3.50001 9.80005 2.00001 8.00005 2.00001C6.20005 2.00001 4.70005 3.50001 4.70005 5.30001C4.70005 8.00001 4.00005 9.70001 3.40005 10.7Z" fill="black"/>
<path d="M8.0001 15.3C7.7001 15.3 7.3001 15.2 7.0001 15C6.7001 14.8 6.4001 14.6 6.3001 14.3C6.1001 14 6.2001 13.6 6.5001 13.4C6.8001 13.2 7.2001 13.3 7.4001 13.6C7.5001 13.7 7.5001 13.8 7.6001 13.8C8.0001 14.1 8.4001 14 8.6001 13.7C8.8001 13.4 9.2001 13.3 9.5001 13.5C9.8001 13.7 9.9001 14.1 9.7001 14.4C9.4001 15 8.7001 15.3 8.0001 15.3Z" fill="black"/>
</svg>
