<svg width="16" height="13" viewBox="0 0 16 13" fill="none" xmlns="http://www.w3.org/2000/svg">
<g clip-path="url(#clip0)">
<path fill-rule="evenodd" clip-rule="evenodd" d="M4 12C4 11.4477 4.41864 11 4.93507 11L15.0649 11C15.5814 11 16 11.4477 16 12C16 12.5523 15.5814 13 15.0649 13L4.93506 13C4.41864 13 4 12.5523 4 12Z" fill="black"/>
<path fill-rule="evenodd" clip-rule="evenodd" d="M-4.37114e-08 1C-6.78525e-08 0.447716 0.435615 6.64425e-07 0.972973 6.40937e-07L15.027 2.66144e-08C15.5644 3.12571e-09 16 0.447715 16 1C16 1.55228 15.5644 2 15.027 2L0.972973 2C0.435615 2 -1.95702e-08 1.55228 -4.37114e-08 1Z" fill="black"/>
<path fill-rule="evenodd" clip-rule="evenodd" d="M5 7C5 6.44772 5.44659 6 5.99748 6L15.0025 6C15.5534 6 16 6.44772 16 7C16 7.55228 15.5534 8 15.0025 8L5.99748 8C5.44659 8 5 7.55228 5 7Z" fill="black"/>
</g>
<defs>
<clipPath id="clip0">
<rect width="16" height="13" fill="white"/>
</clipPath>
</defs>
</svg>
