<svg width="16" height="16" viewBox="0 0 16 16" fill="none" xmlns="http://www.w3.org/2000/svg">
<path fill-rule="evenodd" clip-rule="evenodd" d="M9.64121 1.66214C10.1671 1.44424 10.7307 1.33209 11.3 1.33209C11.8692 1.33209 12.4329 1.44424 12.9587 1.66214C13.4846 1.88004 13.9624 2.19941 14.3648 2.60202C14.7673 3.00438 15.0866 3.4821 15.3045 4.00788C15.5224 4.53375 15.6345 5.09741 15.6345 5.66664C15.6345 6.23588 15.5224 6.79953 15.3045 7.32541C15.0866 7.85124 14.7673 8.32899 14.3647 8.73138C14.3647 8.73142 14.3648 8.73134 14.3647 8.73138L8.47138 14.6247C8.34636 14.7497 8.17679 14.82 7.99998 14.82C7.82317 14.82 7.6536 14.7497 7.52857 14.6247L1.63524 8.73138C0.822421 7.91856 0.365784 6.81614 0.365784 5.66664C0.365784 4.51714 0.822421 3.41472 1.63524 2.6019C2.44806 1.78909 3.55048 1.33245 4.69998 1.33245C5.84948 1.33245 6.9519 1.78909 7.76472 2.6019L7.99998 2.83717L8.23513 2.60202C8.23517 2.60198 8.23509 2.60205 8.23513 2.60202C8.63752 2.19947 9.11539 1.88002 9.64121 1.66214ZM11.3 2.66543C10.9059 2.66543 10.5157 2.74307 10.1516 2.89392C9.78753 3.04477 9.45675 3.26588 9.17816 3.5446L8.47138 4.25138C8.21103 4.51173 7.78892 4.51173 7.52857 4.25138L6.82191 3.54471C6.25914 2.98194 5.49585 2.66578 4.69998 2.66578C3.9041 2.66578 3.14082 2.98194 2.57805 3.54471C2.01528 4.10748 1.69912 4.87076 1.69912 5.66664C1.69912 6.46252 2.01528 7.2258 2.57805 7.78857L7.99998 13.2105L13.4219 7.78857C13.7006 7.50998 13.9218 7.17909 14.0727 6.81502C14.2236 6.45095 14.3012 6.06073 14.3012 5.66664C14.3012 5.27256 14.2236 4.88234 14.0727 4.51827C13.9218 4.1542 13.7007 3.82342 13.422 3.54482C13.1434 3.2661 12.8124 3.04477 12.4484 2.89392C12.0843 2.74307 11.6941 2.66543 11.3 2.66543Z" fill="black"/>
</svg>
