<?xml version="1.0" encoding="utf-8"?>
<!-- Generator: Adobe Illustrator 24.2.0, SVG Export Plug-In . SVG Version: 6.00 Build 0)  -->
<svg version="1.1" id="Warstwa_1" xmlns="http://www.w3.org/2000/svg" xmlns:xlink="http://www.w3.org/1999/xlink" x="0px" y="0px"
	 viewBox="0 0 16 16" style="enable-background:new 0 0 16 16;" xml:space="preserve">
<style type="text/css">
	.st0{fill-rule:evenodd;clip-rule:evenodd;}
</style>
<path class="st0" d="M13.3,2.1H2.7C1.6,2.1,0.7,2.9,0.7,4v8c0,1.1,0.9,1.9,1.9,1.9h10.7c1.1,0,1.9-0.9,1.9-1.9V4
	C15.3,2.9,14.4,2.1,13.3,2.1z M2.7,3.3h10.7c0.3,0,0.6,0.2,0.7,0.5L8,7.9L2,3.7C2.1,3.5,2.4,3.3,2.7,3.3z M13.3,12.7H2.7
	c-0.4,0-0.7-0.3-0.7-0.7V5.2l5.7,4c0.2,0.1,0.5,0.1,0.7,0l5.7-4V12C14.1,12.4,13.7,12.7,13.3,12.7z"/>
</svg>
