<svg width="16" height="16" viewBox="0 0 16 16" fill="none" xmlns="http://www.w3.org/2000/svg">
<path d="M8 0.25C3.625 0.25 0.25 3.46875 0.25 7.78125C0.25 10.0312 1.15625 12 2.6875 13.3438C2.9375 13.5938 2.875 13.7188 2.9375 15.1562C2.9375 15.5 3.21875 15.75 3.5625 15.75C3.625 15.75 3.71875 15.75 3.8125 15.7188C5.4375 15 5.46875 14.9375 5.75 15C10.5312 16.3125 15.75 13.25 15.75 7.78125C15.75 3.46875 12.375 0.25 8 0.25ZM12.6562 6.0625L10.375 9.65625C10.1875 9.96875 9.75 10.2188 9.40625 10.2188C9.1875 10.2188 8.875 10.0938 8.6875 9.96875L6.875 8.625C6.8125 8.5625 6.6875 8.53125 6.59375 8.53125C6.53125 8.53125 6.40625 8.5625 6.3125 8.625L3.875 10.4688C3.53125 10.7188 3.125 10.3125 3.34375 9.96875L5.625 6.375C5.8125 6.0625 6.25 5.84375 6.59375 5.84375C6.8125 5.84375 7.125 5.9375 7.3125 6.0625L9.125 7.40625C9.1875 7.46875 9.3125 7.5 9.40625 7.5C9.5 7.5 9.625 7.46875 9.6875 7.40625L12.125 5.5625C12.4688 5.3125 12.875 5.71875 12.6562 6.0625Z" fill="black"/>
</svg>
