<svg width="16" height="16" viewBox="0 0 16 16" fill="none" xmlns="http://www.w3.org/2000/svg">
<path fill-rule="evenodd" clip-rule="evenodd" d="M8.05415 1.67267C8.18317 1.9016 8.16567 2.18495 8.00948 2.39626C7.44 3.1667 7.16596 4.11595 7.23721 5.07136C7.30846 6.02676 7.72026 6.92487 8.39771 7.60232C9.07516 8.27977 9.97326 8.69157 10.9287 8.76282C11.8841 8.83406 12.8333 8.56003 13.6038 7.99055C13.8151 7.83435 14.0984 7.81686 14.3274 7.94588C14.5563 8.07489 14.6881 8.32635 14.6639 8.588C14.5474 9.8489 14.0741 11.0505 13.2996 12.0523C12.5251 13.0541 11.4813 13.8145 10.2903 14.2447C9.09937 14.6749 7.81053 14.757 6.57462 14.4814C5.3387 14.2058 4.20683 13.584 3.31145 12.6886C2.41606 11.7932 1.7942 10.6613 1.51862 9.42541C1.24304 8.1895 1.32515 6.90066 1.75533 5.70971C2.18551 4.51875 2.94597 3.47494 3.94774 2.70041C4.9495 1.92589 6.15113 1.45268 7.41202 1.33615C7.67368 1.31197 7.92514 1.44375 8.05415 1.67267ZM6.21096 2.95936C5.69255 3.14693 5.20377 3.41467 4.76329 3.75524C3.96188 4.37486 3.3535 5.20991 3.00936 6.16267C2.66521 7.11543 2.59953 8.1465 2.82 9.13524C3.04046 10.124 3.53795 11.0295 4.25426 11.7458C4.97057 12.4621 5.87606 12.9596 6.86479 13.18C7.85352 13.4005 8.88459 13.3348 9.83736 12.9907C10.7901 12.6465 11.6252 12.0382 12.2448 11.2367C12.5854 10.7963 12.8531 10.3075 13.0407 9.78907C12.3386 10.0431 11.5855 10.1488 10.8295 10.0925C9.55564 9.99746 8.35817 9.4484 7.4549 8.54513C6.55163 7.64186 6.00257 6.44439 5.90757 5.17051C5.8512 4.41453 5.95696 3.66145 6.21096 2.95936Z" fill="black"/>
</svg>
