<svg width="16" height="16" viewBox="0 0 16 16" fill="none" xmlns="http://www.w3.org/2000/svg">
<path d="M13.3344 15.2192C13.2768 15.2192 13.2184 15.2168 13.16 15.2112C11.0152 14.9784 8.93598 14.2384 7.13358 13.0696C5.46478 12.0096 4.01678 10.5624 2.95358 8.888C1.78398 7.084 1.04398 4.9944 0.816777 2.8504C0.791177 2.5728 0.822377 2.3072 0.908777 2.0504C0.995177 1.7944 1.13118 1.5632 1.31358 1.364C1.49438 1.1648 1.71198 1.008 1.95918 0.898403C2.20798 0.788803 2.46958 0.733603 2.73918 0.732803H4.73998C5.20318 0.738403 5.65838 0.894403 6.01358 1.2C6.36958 1.5064 6.60158 1.9312 6.66718 2.396C6.74638 2.9952 6.89278 3.5816 7.10158 4.144C7.23198 4.4888 7.25998 4.8632 7.18318 5.2256C7.10558 5.5888 6.92718 5.9192 6.66638 6.1816L6.14878 6.7C6.95038 7.9728 8.02878 9.0504 9.29998 9.8512L9.81598 9.3352C10.0808 9.0728 10.412 8.8936 10.7744 8.8168C11.1368 8.74 11.512 8.768 11.8576 8.8984C12.4168 9.1072 13.0032 9.2528 13.5984 9.332C14.0744 9.3984 14.5024 9.6352 14.8096 9.9984C15.1144 10.3568 15.2768 10.8152 15.2664 11.2864V13.28C15.2672 13.5504 15.2128 13.8144 15.104 14.0624C14.996 14.3096 14.84 14.528 14.6392 14.712C14.4384 14.896 14.2072 15.032 13.952 15.1184C13.7512 15.1848 13.5448 15.2192 13.3344 15.2192ZM4.75278 1.9336C4.75038 1.9336 4.74798 1.9336 4.74558 1.9336H2.73998C2.63838 1.9336 2.53838 1.9552 2.44398 1.9968C2.35118 2.0376 2.26878 2.0968 2.19998 2.172C2.13038 2.248 2.07918 2.3352 2.04638 2.4328C2.01358 2.5304 2.00158 2.6312 2.01118 2.7328C2.21758 4.6816 2.89358 6.5888 3.96398 8.2408C4.93678 9.772 6.25598 11.0912 7.78238 12.0608C9.43198 13.1304 11.3312 13.8064 13.2784 14.0168C13.3688 14.0296 13.472 14.0128 13.568 13.98C13.6648 13.948 13.752 13.896 13.8296 13.8256C13.9048 13.7568 13.964 13.6744 14.0048 13.58C14.0464 13.4856 14.0672 13.3864 14.0664 13.2824V11.28C14.0664 11.2744 14.0664 11.2696 14.0664 11.264C14.0712 11.084 14.0104 10.9112 13.8936 10.7736C13.7768 10.6352 13.6144 10.5456 13.4368 10.5216C12.7568 10.432 12.0832 10.264 11.4368 10.0224C11.304 9.9728 11.1624 9.9616 11.024 9.9912C10.8864 10.0208 10.7616 10.088 10.6624 10.1864L9.81758 11.0312C9.62718 11.2224 9.33118 11.2608 9.09758 11.1288C7.33518 10.1272 5.87438 8.6664 4.87198 6.904C4.73838 6.6688 4.77838 6.3736 4.96878 6.1824L5.81598 5.336C5.91198 5.2376 5.97998 5.1128 6.00958 4.9744C6.03838 4.8376 6.02798 4.696 5.97838 4.5648C5.73678 3.916 5.56878 3.2416 5.47838 2.5584C5.45438 2.3872 5.36638 2.2264 5.23118 2.1104C5.09838 1.996 4.92878 1.9336 4.75278 1.9336Z" fill="black"/>
</svg>
