<svg width="16" height="16" viewBox="0 0 16 16" fill="none" xmlns="http://www.w3.org/2000/svg">
<path d="M7.30005 13.3C4.00005 13.3 1.30005 10.6 1.30005 7.29999C1.30005 3.99999 4.00005 1.29999 7.30005 1.29999C10.6 1.29999 13.3 3.99999 13.3 7.29999C13.3 10.6 10.6 13.3 7.30005 13.3ZM7.30005 2.69999C4.70005 2.69999 2.60005 4.79999 2.60005 7.39999C2.60005 9.99999 4.70005 12.1 7.30005 12.1C9.90005 12 12 9.89999 12 7.29999C12 4.79999 9.90005 2.69999 7.30005 2.69999Z" fill="black"/>
<path d="M14 14.7C13.8 14.7 13.7 14.6 13.5 14.5L10.6 11.6C10.3 11.3 10.3 10.9 10.6 10.7C10.9 10.4 11.3 10.4 11.5 10.7L14.4 13.6C14.7 13.9 14.7 14.3 14.4 14.5C14.3 14.6 14.2 14.7 14 14.7Z" fill="black"/>
</svg>
