<svg width="16" height="16" viewBox="0 0 16 16" fill="none" xmlns="http://www.w3.org/2000/svg">
<path d="M7.30005 9.29999C7.20005 9.29999 7.00005 9.29999 6.90005 9.09999C6.60005 8.79999 6.60005 8.39999 6.90005 8.19999L14.2 0.89999C14.5 0.59999 14.9 0.59999 15.1 0.89999C15.4 1.19999 15.4 1.59999 15.1 1.79999L7.80005 9.09999C7.70005 9.29999 7.50005 9.29999 7.30005 9.29999Z" fill="black"/>
<path d="M9.99995 15.3C9.69995 15.3 9.49995 15.1 9.39995 14.9L6.79995 9.2L1.09995 6.6C0.799951 6.5 0.699951 6.2 0.699951 6C0.699951 5.7 0.899951 5.5 1.09995 5.4L14.4 0.699999C14.6 0.599999 14.9 0.69999 15.1 0.89999C15.3 1.09999 15.3 1.3 15.3 1.6L10.6 14.9C10.5 15.1 10.3 15.3 9.99995 15.3ZM3.09995 6.1L7.59995 8.1C7.79995 8.2 7.89995 8.3 7.89995 8.4L9.89995 12.9L13.6 2.5L3.09995 6.1Z" fill="black"/>
</svg>
