<svg width="16" height="16" viewBox="0 0 16 16" fill="none" xmlns="http://www.w3.org/2000/svg">
<g clip-path="url(#clip0)">
<path fill-rule="evenodd" clip-rule="evenodd" d="M7.99994 0C8.36813 0 8.66661 0.298477 8.66661 0.666667V2C8.66661 2.36819 8.36813 2.66667 7.99994 2.66667C7.63175 2.66667 7.33327 2.36819 7.33327 2V0.666667C7.33327 0.298477 7.63175 0 7.99994 0ZM2.34187 2.34193C2.60222 2.08158 3.02433 2.08158 3.28468 2.34193L4.23134 3.2886C4.49169 3.54894 4.49169 3.97105 4.23134 4.2314C3.97099 4.49175 3.54888 4.49175 3.28853 4.2314L2.34187 3.28474C2.08152 3.02439 2.08152 2.60228 2.34187 2.34193ZM13.658 2.34193C13.9184 2.60228 13.9184 3.02439 13.658 3.28474L12.7113 4.2314C12.451 4.49175 12.0289 4.49175 11.7685 4.2314C11.5082 3.97105 11.5082 3.54894 11.7685 3.2886L12.7152 2.34193C12.9756 2.08158 13.3977 2.08158 13.658 2.34193ZM7.99994 5.33333C6.52718 5.33333 5.33327 6.52724 5.33327 8C5.33327 9.47276 6.52718 10.6667 7.99994 10.6667C9.4727 10.6667 10.6666 9.47276 10.6666 8C10.6666 6.52724 9.4727 5.33333 7.99994 5.33333ZM3.99994 8C3.99994 5.79086 5.7908 4 7.99994 4C10.2091 4 11.9999 5.79086 11.9999 8C11.9999 10.2091 10.2091 12 7.99994 12C5.7908 12 3.99994 10.2091 3.99994 8ZM-6.10352e-05 8C-6.10352e-05 7.63181 0.298416 7.33333 0.666606 7.33333H1.99994C2.36813 7.33333 2.66661 7.63181 2.66661 8C2.66661 8.36819 2.36813 8.66667 1.99994 8.66667H0.666606C0.298416 8.66667 -6.10352e-05 8.36819 -6.10352e-05 8ZM13.3333 8C13.3333 7.63181 13.6318 7.33333 13.9999 7.33333H15.3333C15.7015 7.33333 15.9999 7.63181 15.9999 8C15.9999 8.36819 15.7015 8.66667 15.3333 8.66667H13.9999C13.6318 8.66667 13.3333 8.36819 13.3333 8ZM4.23134 11.7686C4.49169 12.0289 4.49169 12.4511 4.23134 12.7114L3.28468 13.6581C3.02433 13.9184 2.60222 13.9184 2.34187 13.6581C2.08152 13.3977 2.08152 12.9756 2.34187 12.7153L3.28853 11.7686C3.54888 11.5082 3.97099 11.5082 4.23134 11.7686ZM11.7685 11.7686C12.0289 11.5082 12.451 11.5082 12.7113 11.7686L13.658 12.7153C13.9184 12.9756 13.9184 13.3977 13.658 13.6581C13.3977 13.9184 12.9756 13.9184 12.7152 13.6581L11.7685 12.7114C11.5082 12.4511 11.5082 12.0289 11.7685 11.7686ZM7.99994 13.3333C8.36813 13.3333 8.66661 13.6318 8.66661 14V15.3333C8.66661 15.7015 8.36813 16 7.99994 16C7.63175 16 7.33327 15.7015 7.33327 15.3333V14C7.33327 13.6318 7.63175 13.3333 7.99994 13.3333Z" fill="black"/>
</g>
<defs>
<clipPath id="clip0">
<rect width="16" height="16" fill="white"/>
</clipPath>
</defs>
</svg>
