<svg width="16" height="16" viewBox="0 0 16 16" fill="none" xmlns="http://www.w3.org/2000/svg">
<path d="M8.0002 14.8C7.5002 14.8 7.0002 14.6 6.6002 14.2L0.900195 8.50001C0.700195 8.30001 0.700195 8.20001 0.700195 8.00001V1.30001C0.700195 1.00001 1.0002 0.700012 1.3002 0.700012H8.0002C8.2002 0.700012 8.3002 0.800012 8.5002 0.900012L14.2002 6.60001C15.0002 7.40001 15.0002 8.60001 14.2002 9.40001L9.4002 14.2C9.0002 14.6 8.5002 14.8 8.0002 14.8ZM2.0002 7.70001L7.5002 13.2C7.8002 13.5 8.2002 13.5 8.4002 13.2L13.2002 8.40001C13.5002 8.10001 13.5002 7.70001 13.2002 7.50001L7.7002 2.00001H2.0002V7.70001Z" fill="black"/>
<path d="M4.7 5.3C4.3 5.3 4 5 4 4.7C4 4.4 4.3 4 4.7 4C5 4 5.3 4.3 5.3 4.7C5.3 5.1 5 5.3 4.7 5.3Z" fill="black"/>
</svg>
