<svg width="56" height="16" viewBox="0 0 56 16" fill="none" xmlns="http://www.w3.org/2000/svg">
<path d="M53.9003 5.39886V7.00954H55.0854V8.66653H53.9003V10.7028C53.9003 11.1973 54.3259 11.2436 55.0854 11.1973V12.7621C52.8304 12.9924 52.1744 12.3135 52.1744 10.7028V8.66653H51.2543V7.00954H52.1744V6.39023L53.8983 5.39886H53.9003Z" fill="black"/>
<path d="M46.7557 10.5765H50.84C50.8859 10.3578 50.9093 10.1275 50.9093 9.88588C50.9093 8.14876 49.6666 6.84853 47.9867 6.84853C46.169 6.84853 44.9264 8.17171 44.9264 9.88588C44.9264 11.6001 46.1461 12.9232 48.1135 12.9232C49.2064 12.9232 50.0576 12.5206 50.6214 11.7382L49.241 10.9445C49.0107 11.1974 48.608 11.3818 48.1365 11.3818C47.5035 11.3818 46.9744 11.1744 46.7557 10.5765ZM46.7215 9.28791C46.8826 8.70082 47.3195 8.37868 47.9754 8.37868C48.4933 8.37868 49.0107 8.62029 49.1947 9.28791H46.7215Z" fill="black"/>
<path d="M40.2325 7.01162V7.55039C40.5434 7.12477 41.1184 6.84853 41.8778 6.84853C43.04 6.84853 44.0293 7.67723 44.0293 9.23033V12.7622H42.3035V9.48321C42.3035 8.77008 41.8549 8.43626 41.3024 8.43626C40.6698 8.43626 40.2325 8.80471 40.2325 9.62133V12.7622H38.5071V8.0042L40.2325 7.01162Z" fill="black"/>
<path d="M35.5156 7.0096V7.55039C35.1358 7.11349 34.5721 6.84853 33.8014 6.84853C32.2942 6.84853 31.0515 8.17171 31.0515 9.88588C31.0515 11.6001 32.2942 12.9232 33.8014 12.9232C34.5721 12.9232 35.1358 12.6587 35.5156 12.2214V12.7622H37.2414V7.0096H35.5156ZM34.1465 11.2896C33.3528 11.2896 32.7774 10.7488 32.7774 9.88588C32.7774 9.02296 33.3528 8.48257 34.1465 8.48257C34.9401 8.48257 35.5156 9.02296 35.5156 9.88588C35.5156 10.7488 34.9401 11.2896 34.1465 11.2896Z" fill="black"/>
<path d="M30.0739 4.36363V12.7621H28.348V5.35622L30.0739 4.36363Z" fill="black"/>
<path fill-rule="evenodd" clip-rule="evenodd" d="M22.9064 7.0096V7.55039C23.2861 7.11349 23.8498 6.84853 24.6205 6.84853C26.1277 6.84853 27.37 8.17171 27.37 9.88588C27.37 10.6578 27.1183 11.3504 26.7035 11.8787L24.9169 12.9059C24.8194 12.9176 24.7204 12.9232 24.6205 12.9232C23.8498 12.9232 23.2861 12.6587 22.9064 12.2214V14.062L21.1805 15.0546V7.0096H22.9064ZM24.2754 11.2896C23.4814 11.2896 22.9064 10.7488 22.9064 9.88588C22.9064 9.02296 23.4814 8.48257 24.2754 8.48257C25.0691 8.48257 25.6445 9.02296 25.6445 9.88588C25.6445 10.7488 25.0691 11.2896 24.2754 11.2896Z" fill="black"/>
<path d="M13.0925 7.01041V7.53911C13.357 7.14772 13.8636 6.84853 14.6343 6.84853C15.3132 6.84853 15.8193 7.12477 16.1415 7.60797C16.4636 7.14772 16.9927 6.84853 17.8097 6.84853C19.1325 6.84853 19.9954 7.79199 19.9954 9.23033V12.7622H18.2696V9.37972C18.2696 8.80471 17.9938 8.43626 17.4413 8.43626C16.8663 8.43626 16.5441 8.83894 16.5441 9.51784V12.7622H14.8183V9.37972C14.8183 8.80471 14.5421 8.43626 13.99 8.43626C13.4146 8.43626 13.0925 8.83894 13.0925 9.51784V12.7622H11.367V8.00259L13.0925 7.01041Z" fill="black"/>
<path d="M6.23572 10.5765H10.32C10.3659 10.3578 10.3889 10.1275 10.3889 9.88588C10.3889 8.14876 9.14623 6.84853 7.46669 6.84853C5.64903 6.84853 4.40639 8.17171 4.40639 9.88588C4.40639 11.6001 5.62568 12.9232 7.59313 12.9232C8.68598 12.9232 9.53762 12.5206 10.1014 11.7382L8.72061 10.9445C8.49068 11.1974 8.08801 11.3818 7.61608 11.3818C6.98348 11.3818 6.45437 11.1744 6.23572 10.5765ZM6.20109 9.28791C6.36216 8.70082 6.79946 8.37868 7.45501 8.37868C7.97285 8.37868 8.49068 8.62029 8.6747 9.28791H6.20109Z" fill="black"/>
<path d="M2.64595 5.39886V7.00954H3.83101V8.66653H2.64595V10.7028C2.64595 11.1973 3.07198 11.2436 3.83101 11.1973V12.7621C1.57605 12.9924 0.920506 12.3135 0.920506 10.7028V8.66653H0V7.00954H0.920506V6.39104L2.64595 5.39886Z" fill="black"/>
</svg>
