<svg width="16" height="16" viewBox="0 0 16 16" fill="none" xmlns="http://www.w3.org/2000/svg">
<path d="M14.3438 4.75C14.9688 4.28125 15.5312 3.71875 15.9688 3.0625C15.4062 3.3125 14.75 3.5 14.0938 3.5625C14.7812 3.15625 15.2812 2.53125 15.5312 1.75C14.9062 2.125 14.1875 2.40625 13.4688 2.5625C12.8438 1.90625 12 1.53125 11.0625 1.53125C9.25 1.53125 7.78125 3 7.78125 4.8125C7.78125 5.0625 7.8125 5.3125 7.875 5.5625C5.15625 5.40625 2.71875 4.09375 1.09375 2.125C0.8125 2.59375 0.65625 3.15625 0.65625 3.78125C0.65625 4.90625 1.21875 5.90625 2.125 6.5C1.59375 6.46875 1.0625 6.34375 0.625 6.09375V6.125C0.625 7.71875 1.75 9.03125 3.25 9.34375C3 9.40625 2.6875 9.46875 2.40625 9.46875C2.1875 9.46875 2 9.4375 1.78125 9.40625C2.1875 10.7188 3.40625 11.6562 4.84375 11.6875C3.71875 12.5625 2.3125 13.0938 0.78125 13.0938C0.5 13.0938 0.25 13.0625 0 13.0312C1.4375 13.9688 3.15625 14.5 5.03125 14.5C11.0625 14.5 14.3438 9.53125 14.3438 5.1875C14.3438 5.03125 14.3438 4.90625 14.3438 4.75Z" fill="black"/>
</svg>
