<svg width="18" height="16" viewBox="0 0 18 16" fill="none" xmlns="http://www.w3.org/2000/svg">
<path d="M17.1766 3.87759C16.9803 3.13853 16.402 2.55647 15.6677 2.35894C14.3368 2 8.9999 2 8.9999 2C8.9999 2 3.66302 2 2.33205 2.35894C1.59777 2.5565 1.01946 3.13853 0.823178 3.87759C0.466553 5.21719 0.466553 8.01213 0.466553 8.01213C0.466553 8.01213 0.466553 10.8071 0.823178 12.1467C1.01946 12.8857 1.59777 13.4435 2.33205 13.6411C3.66302 14 8.9999 14 8.9999 14C8.9999 14 14.3368 14 15.6677 13.6411C16.402 13.4435 16.9803 12.8857 17.1766 12.1467C17.5332 10.8071 17.5332 8.01213 17.5332 8.01213C17.5332 8.01213 17.5332 5.21719 17.1766 3.87759ZM7.25443 10.5497V5.47453L11.715 8.01219L7.25443 10.5497Z" fill="black"/>
</svg>
