<?xml version="1.0" standalone="no"?>
<!DOCTYPE svg PUBLIC "-//W3C//DTD SVG 1.1//EN" "http://www.w3.org/Graphics/SVG/1.1/DTD/svg11.dtd" >
<svg xmlns="http://www.w3.org/2000/svg">
<metadata>Generated by IcoMoon</metadata>
<defs>
<font id="icomoon" horiz-adv-x="1024">
<font-face units-per-em="1024" ascent="960" descent="-64" />
<missing-glyph horiz-adv-x="1024" />
<glyph unicode="&#x20;" horiz-adv-x="512" d="" />
<glyph unicode="&#xe900;" glyph-name="hamburger" horiz-adv-x="1260" d="M315.077 14.769c0 43.504 32.976 78.769 73.655 78.769h797.919c40.684 0 73.657-35.265 73.657-78.769s-32.973-78.769-73.657-78.769h-797.92c-40.678 0-73.654 35.265-73.654 78.769zM0 881.231c0 43.503 34.313 78.769 76.64 78.769h1107.025c42.331 0 76.642-35.266 76.642-78.769s-34.312-78.769-76.642-78.769h-1107.025c-42.327 0-76.64 35.267-76.64 78.769zM393.846 408.615c0 43.503 35.178 78.769 78.571 78.769h709.318c43.394 0 78.572-35.267 78.572-78.769s-35.178-78.769-78.572-78.769h-709.318c-43.393 0-78.571 35.267-78.571 78.769z" />
<glyph unicode="&#xe901;" glyph-name="alert" d="M449.203 862.588c19.169 10.793 40.797 16.463 62.796 16.463s43.627-5.67 62.797-16.463c19.169-10.792 35.234-26.344 46.643-45.153l0.124-0.202 361.74-603.895c11.174-19.354 17.082-41.299 17.146-63.648 0.064-22.355-5.728-44.333-16.794-63.744-11.072-19.418-27.027-35.603-46.291-46.938s-41.158-17.427-63.507-17.67l-0.467-0.006h-723.245c-22.349 0.25-44.244 6.342-63.507 17.677s-35.222 27.52-46.29 46.938c-11.068 19.411-16.859 41.389-16.796 63.744 0.063 22.349 5.976 44.294 17.153 63.648l0.342 0.589 361.513 603.509c11.41 18.809 27.475 34.36 46.644 45.153zM511.999 793.718c-7.332 0-14.542-1.891-20.932-5.488-6.362-3.581-11.697-8.735-15.497-14.967-0.017-0.028-0.034-0.056-0.051-0.084l-361.058-602.76c-3.635-6.394-5.556-13.613-5.577-20.973-0.021-7.45 1.909-14.771 5.599-21.248 3.689-6.47 9.009-11.866 15.43-15.642 6.364-3.744 13.59-5.773 20.972-5.888h722.229c7.379 0.115 14.611 2.144 20.973 5.888 6.419 3.776 11.738 9.171 15.43 15.642 3.686 6.477 5.619 13.798 5.6 21.248-0.026 7.36-1.946 14.579-5.581 20.973l-361.057 602.76c-0.017 0.028-0.034 0.056-0.051 0.084-3.8 6.232-9.135 11.386-15.497 14.967-6.39 3.597-13.599 5.488-20.932 5.488zM511.999 618.667c23.564 0 42.667-19.102 42.667-42.666v-170.667c0-23.564-19.103-42.667-42.667-42.667s-42.666 19.103-42.666 42.667v170.667c0 23.564 19.102 42.666 42.666 42.666zM469.333 234.669c0 23.565 19.102 42.662 42.666 42.662h0.427c23.564 0 42.667-19.098 42.667-42.662s-19.103-42.669-42.667-42.669h-0.427c-23.564 0-42.666 19.104-42.666 42.669z" />
<glyph unicode="&#xe902;" glyph-name="behance" horiz-adv-x="1152" d="M464 484c62 32 96 78 96 148 0 142-106 176-226 176h-334v-708h342c130 0 250 61.997 250 205.997 0 88.003-42 154.003-128 178.003zM154 688h148c56 0 106-16 106-82 0-60-40-84-96-84h-158v166zM322 220h-168v196h170c70 0 112-30 112-102.003 0-72-52-93.997-114-93.997zM1038.003 702v70h-286.003v-70h286.003zM1152 348c0 152-89.997 280-249.997 280-158.003 0-264.003-118-264.003-272 0-160 102-269.997 264.003-269.997 121.997 0 201.997 56 240 171.994h-124.006c-13.997-43.994-69.997-65.997-112-65.997-81.997 0-125.997 48-125.997 130h370.003c0 8 1.997 18 1.997 26zM780 412c4 66 50.003 108 116 108 72 0 108-40 113.997-108h-229.997z" />
<glyph unicode="&#xe903;" glyph-name="bell" d="M896 192h-767.997c-19.2 0-38.4 12.8-38.4 32-6.4 19.2 0 38.4 19.2 44.8 0 0 108.8 83.199 108.8 345.599 0 166.4 134.4 300.8 300.8 300.8 166.397 0 300.797-134.4 300.797-300.8 0-268.8 108.8-345.599 108.8-351.999 12.8-12.8 19.2-32 19.2-44.8-19.2-12.8-32-25.6-51.2-25.6zM217.603 275.2h582.397c-38.4 63.999-76.8 172.799-76.8 339.199 0 121.6-95.997 217.6-211.197 217.6s-211.2-96-211.2-211.2c0-172.8-44.8-281.6-83.2-345.599zM512.006-19.2c-19.2 0-44.8 6.4-64 19.2s-38.4 25.6-44.8 44.8c-12.8 19.2-6.4 44.8 12.8 57.6s44.8 6.4 57.6-12.8c6.4-6.4 6.4-12.8 12.8-12.8 25.6-19.2 51.2-12.8 64 6.4s38.4 25.6 57.6 12.8c19.2-12.8 25.6-38.4 12.8-57.6-19.2-38.4-64-57.6-108.8-57.6z" />
<glyph unicode="&#xe904;" glyph-name="bell-off" horiz-adv-x="1084" d="M542.124-21.835c-18.071 0-42.165 6.024-60.235 18.071s-36.141 24.094-42.165 42.165c-12.047 18.071-6.024 42.165 12.047 54.212s42.165 6.024 54.212-12.047c6.024-6.024 6.024-12.047 12.047-12.047 24.094-18.071 48.188-12.047 60.235 6.024s36.141 24.094 54.212 12.047c18.071-12.047 24.094-36.141 12.047-54.212-18.071-36.141-60.235-54.212-102.4-54.212zM807.153 339.576c-18.071 0-36.141 12.047-36.141 30.117-18.071 66.259-30.118 138.541-24.094 210.824 0 24.094 18.071 42.165 42.165 42.165s42.165-18.071 42.165-42.165c0-66.259 6.024-126.494 24.094-186.729 6.024-24.094-6.024-42.164-30.118-48.188-12.047-6.024-12.047-6.024-18.071-6.024zM740.894 176.941h-560.185c-18.071 0-36.141 12.047-36.141 30.118-6.024 18.071 0 36.141 18.071 42.165 0 0 102.4 78.306 102.4 325.271 0 30.118 6.024 54.212 12.047 84.329 0 24.094 24.094 36.141 48.188 30.118 18.071-6.024 30.118-30.118 24.094-54.212-6.024-18.071-6.024-36.141-6.024-54.212 0-162.635-42.165-265.035-78.306-325.271h475.856c24.094 0 42.165-18.071 42.165-42.165s-18.071-36.141-42.165-36.141zM783.059 538.352c-24.094 0-42.165 18.071-42.165 42.165 0 108.424-90.353 198.776-198.776 198.776-42.165 0-78.306-12.047-114.447-36.141-18.071-12.047-42.165-6.024-54.212 12.047s-6.024 48.188 12.047 60.235c48.188 30.118 102.4 42.165 156.612 42.165 156.612 0 283.106-126.494 283.106-283.106 0-18.071-18.071-36.141-42.165-36.141zM981.841-64c-12.047 0-18.071 6.024-30.118 12.047l-879.435 885.458c-18.071 18.071-18.071 42.165 0 54.212 18.071 18.071 42.165 18.071 54.212 0l885.459-885.458c18.071-18.071 18.071-42.165 0-54.212-6.024-6.024-18.071-12.047-30.118-12.047z" />
<glyph unicode="&#xe905;" glyph-name="check" d="M883.501 734.171c16.666-16.662 16.666-43.677 0-60.339l-469.331-469.332c-16.662-16.666-43.677-16.666-60.339 0l-213.334 213.332c-16.662 16.662-16.662 43.677 0 60.339s43.677 16.662 60.34 0l183.164-183.163 439.162 439.163c16.666 16.662 43.68 16.662 60.339 0z" />
<glyph unicode="&#xe906;" glyph-name="chevron-down" d="M795.155 603.153c14.995-14.996 14.995-39.309 0-54.306l-256.001-256.003c-14.996-14.995-39.309-14.995-54.306 0l-256 256.003c-14.996 14.996-14.996 39.31 0 54.306s39.309 14.996 54.306 0l228.847-228.847 228.85 228.847c14.995 14.996 39.309 14.996 54.304 0z" />
<glyph unicode="&#xe907;" glyph-name="chevron-left" d="M667.155 731.153c14.995-14.996 14.995-39.309 0-54.306l-228.848-228.847 228.848-228.845c14.995-14.995 14.995-39.309 0-54.31-14.995-14.995-39.31-14.995-54.307 0l-256 256.003c-14.996 14.996-14.996 39.31 0 54.306l256 256c14.996 14.996 39.311 14.996 54.307 0z" />
<glyph unicode="&#xe908;" glyph-name="chevron-right" d="M356.849 731.153c14.996 14.996 39.309 14.996 54.306 0l256.001-256c7.2-7.201 11.245-16.969 11.245-27.153s-4.045-19.952-11.245-27.153l-256.001-256.003c-14.996-14.995-39.31-14.995-54.306 0-14.996 15.002-14.996 39.315 0 54.31l228.847 228.845-228.847 228.847c-14.996 14.996-14.996 39.31 0 54.306z" />
<glyph unicode="&#xe909;" glyph-name="chevron-up" d="M484.849 603.153c14.996 14.996 39.309 14.996 54.306 0l256.001-256c14.995-14.996 14.995-39.307 0-54.308-14.995-14.995-39.309-14.995-54.304 0l-228.85 228.85-228.847-228.85c-14.996-14.995-39.31-14.995-54.306 0-14.996 15.002-14.996 39.313 0 54.308l256 256z" />
<glyph unicode="&#xe90a;" glyph-name="close" d="M225.829 734.171c16.662 16.662 43.677 16.662 60.339 0l225.83-225.83 225.832 225.83c16.659 16.662 43.674 16.662 60.339 0 16.659-16.662 16.659-43.677 0-60.339l-225.831-225.83 225.831-225.832c16.659-16.659 16.659-43.674 0-60.339-16.666-16.659-43.68-16.659-60.339 0l-225.832 225.831-225.83-225.831c-16.662-16.659-43.677-16.659-60.339 0-16.662 16.666-16.662 43.68 0 60.339l225.83 225.832-225.83 225.83c-16.662 16.662-16.662 43.677 0 60.339z" />
<glyph unicode="&#xe90b;" glyph-name="dribbble" d="M512 944c-274 0-496-224-496-496 0-273.997 222-496 496-496 272 0 496 222.003 496 496 0 272-224 496-496 496zM838.003 714c59.994-72 96-164 96-264-14.003 4-154.003 32-294.003 14-12 28-22 52-38 84 158 64 228.003 154 236.003 166zM792 764c-8-12-72-98-222-154-70 128-146 232-158 248 134 32 276-2 380-94zM330 830c12-16 88-120 158-246-198-52-372-52-392-50 28 130 116 240 234 296zM88 446c0 4 0 8 0 14 18-2 224-4 434 60 14-24 24-48 36-72-154-44-294-168-362-284-68 74.003-108 174-108 282zM250 112c46 89.997 166 208 336 266 60.003-154 84.003-283.997 90-322-136-57.997-300-41.997-426 56zM748 96c-4 24-28 148-82.003 302 132.006 20 248-14 264-18-19.994-117.997-88-220-181.997-284z" />
<glyph unicode="&#xe90c;" glyph-name="facebook" d="M750.003 384l27.994 184h-177.997v120c0 52 24 100 104 100h81.997v158c0 0-73.997 14-144 14-145.997 0-241.997-90-241.997-250v-142h-164v-184h164v-448h200v448h150.003z" />
<glyph unicode="&#xe90d;" glyph-name="globe" d="M512 915.2c-262.4 0-467.2-204.8-467.2-467.2s211.2-467.2 467.2-467.2c262.4 0 467.2 211.2 467.2 467.2s-204.8 467.2-467.2 467.2zM640 492.8h-256c12.8 115.2 51.2 224 128 320 70.4-96 115.2-204.8 128-320zM416 819.2c-64-96-102.4-211.2-115.2-326.4h-172.8c19.2 160 134.4 288 288 326.4zM128 403.2h172.8c6.4-115.2 51.2-230.4 115.2-326.4-153.6 38.4-268.8 166.4-288 326.4zM384 403.2h256c-12.8-115.2-51.2-224-128-320-70.4 96-115.2 204.8-128 320zM608 76.8c64 96 102.4 211.2 115.2 326.4h172.8c-19.2-160-134.4-288-288-326.4zM723.2 492.8c-6.4 115.2-51.2 230.4-115.2 326.4 153.6-38.4 268.8-166.4 281.6-326.4h-166.4z" />
<glyph unicode="&#xe90e;" glyph-name="heart" d="M617.037 853.623c33.657 13.946 69.727 21.123 106.163 21.123 36.429 0 72.506-7.178 106.157-21.123 33.658-13.946 64.237-34.385 89.99-60.152 25.76-25.751 46.195-56.325 60.141-89.975 13.946-33.656 21.12-69.73 21.12-106.161s-7.174-72.505-21.12-106.161c-13.946-33.653-34.381-64.229-60.147-89.982 0-0.003 0.006 0.003 0 0l-377.172-377.172c-8.001-8-18.854-12.499-30.17-12.499s-22.168 4.499-30.17 12.499l-377.173 377.172c-52.020 52.020-81.245 122.575-81.245 196.143s29.225 144.123 81.245 196.143c52.020 52.020 122.575 81.245 196.143 81.245s144.123-29.225 196.143-81.245l15.057-15.057 15.050 15.050c0.003 0.003-0.003-0.002 0 0 25.753 25.763 56.337 46.208 89.989 60.152zM723.2 789.412c-25.222 0-50.195-4.969-73.498-14.623-23.3-9.654-44.47-23.805-62.3-41.644l-45.234-45.234c-16.662-16.662-43.677-16.662-60.34 0l-45.226 45.227c-36.017 36.017-84.868 56.252-135.804 56.252s-99.786-20.234-135.804-56.252c-36.017-36.017-56.252-84.867-56.252-135.804s20.234-99.786 56.252-135.804l347.004-347.004 347.003 347.004c17.837 17.83 31.994 39.007 41.651 62.307s14.624 48.275 14.624 73.496c0 25.221-4.966 50.195-14.624 73.496s-23.808 44.47-41.645 62.301c-17.83 17.838-39.014 32.003-62.31 41.658-23.302 9.654-48.275 14.623-73.498 14.623z" />
<glyph unicode="&#xe90f;" glyph-name="instagram" d="M512 678c-128 0-230-104-230-230 0-128 102-230.003 230-230.003 126 0 230.003 102.003 230.003 230.003 0 126-104.003 230-230.003 230zM512 297.997c-82 0-150 66.003-150 150.003 0 82 66 148 150 148 82 0 148-66 148-148 0-84-66-150.003-148-150.003zM804 686c0 30-24 54-53.997 54-30.003 0-54.003-24-54.003-54s24-54 54.003-54c29.997 0 53.997 24 53.997 54zM956 632c-4 72-20 136-72 188s-116 68-188 72c-74 4-296 4-370 0-72-4-134-20-188-72-52-52-68-116-72-188-4-74-4-296 0-369.997 4-72 20-134.003 72-188.006 54-51.994 116-67.994 188-72 74-3.994 296-3.994 370 0 72 4.006 136 20.006 188 72 52 54.003 68 116.006 72 188.006 4 73.997 4 295.997 0 369.997zM860 184c-13.997-40-45.997-70.003-84-86.003-60-24-200-17.997-264-17.997-66 0-206-6.003-264 17.997-40 16-70 46.003-86 86.003-24 57.997-18 198-18 264 0 64-6 204 18 264 16 38 46 68 86 84 58 24 198 18 264 18 64 0 204 6 264-18 38.003-14 68-46 84-84 24-60 18.003-200 18.003-264 0-66 5.997-206.003-18.003-264z" />
<glyph unicode="&#xe910;" glyph-name="mail" d="M851.2 825.6h-678.4c-70.4 0-128-51.2-128-121.6v-512c0-70.4 57.6-121.6 121.6-121.6h684.8c70.4 0 121.6 57.6 121.6 121.6v512c6.4 70.4-51.2 121.6-121.6 121.6zM172.8 748.8h684.8c19.2 0 38.4-12.8 44.8-32l-390.4-262.4-384 268.8c6.4 12.8 25.6 25.6 44.8 25.6zM851.2 147.2h-678.4c-25.6 0-44.8 19.2-44.8 44.8v435.2l364.8-256c12.8-6.4 32-6.4 44.8 0l364.8 256v-435.2c0-25.6-25.6-44.8-51.2-44.8z" />
<glyph unicode="&#xe911;" glyph-name="messenger" d="M512 944c-280 0-496-206-496-482 0-143.997 58-270 156-356.003 16-16 12-24 16-115.994 0-22.003 18-38.003 40-38.003 4 0 10 0 16 1.997 104 46.003 106 50.003 124 46.003 305.997-84 640 112 640 462 0 276-216 482-496 482zM809.997 572l-145.997-230c-12-20-40-36.003-62-36.003-14 0-34 8-46 16.003l-116 86c-4 4-12 6-18 6-4 0-12-2-18-6l-156-118.003c-22-16-48 10.003-34 32.003l146 230c12 20 40 34 62 34 14 0 34-6 46-14l116-86c4-4 12-6 18-6s14 2 18 6l156 118c22.003 16 48-10 33.997-32z" />
<glyph unicode="&#xe912;" glyph-name="moon" d="M515.466 852.949c8.257-14.652 7.137-32.786-2.859-46.31-36.447-49.308-53.985-110.060-49.425-171.206s30.915-118.625 74.272-161.981c43.357-43.357 100.835-69.712 161.983-74.272 61.146-4.559 121.894 12.979 171.206 49.425 13.523 9.997 31.654 11.116 46.31 2.859 14.65-8.257 23.085-24.35 21.536-41.096-7.456-80.698-37.747-157.6-87.315-221.715s-116.371-112.781-192.595-140.314c-76.22-27.533-158.705-32.787-237.804-15.149s-151.539 57.434-208.843 114.739c-57.305 57.306-97.104 129.747-114.741 208.844s-12.382 161.584 15.149 237.805 76.201 143.025 140.314 192.595c64.113 49.569 141.017 79.855 221.714 87.313 16.746 1.548 32.84-6.886 41.096-21.537zM397.501 770.601c-33.178-12.004-64.46-29.14-92.651-50.936-51.29-39.656-90.227-93.099-112.252-154.076s-26.229-126.965-12.119-190.244c14.109-63.281 45.949-121.233 91.793-167.076s103.795-77.683 167.074-91.789c63.279-14.112 129.267-9.907 190.244 12.115 60.975 22.029 114.422 60.96 154.076 112.256 21.798 28.186 38.931 59.469 50.938 92.648-44.934-16.258-93.133-23.023-141.517-19.42-81.527 6.083-158.165 41.222-215.974 99.032s-92.949 134.447-99.029 215.976c-3.608 48.383 3.161 96.58 19.417 141.514z" />
<glyph unicode="&#xe913;" glyph-name="phone" d="M853.402-14.029c-3.686 0-7.424 0.154-11.162 0.512-137.267 14.899-270.337 62.259-385.691 137.062-106.803 67.84-199.475 160.461-267.52 267.622-74.854 115.456-122.214 249.19-136.755 386.406-1.638 17.766 0.358 34.765 5.888 51.2 5.53 16.384 14.234 31.181 25.907 43.93 11.571 12.749 25.498 22.784 41.318 29.798 15.923 7.014 32.666 10.547 49.92 10.598h128.051c29.645-0.358 58.778-10.342 81.51-29.901 22.784-19.61 37.632-46.797 41.83-76.544 5.069-38.349 14.438-75.878 27.802-111.872 8.346-22.067 10.138-46.029 5.222-69.222-4.966-23.245-16.384-44.39-33.075-61.184l-33.126-33.178c51.302-81.459 120.32-150.426 201.677-201.677l33.024 33.024c16.948 16.794 38.145 28.262 61.339 33.178s47.206 3.123 69.325-5.222c35.789-13.363 73.318-22.682 111.411-27.75 30.464-4.25 57.856-19.405 77.517-42.65 19.507-22.938 29.901-52.275 29.235-82.432v-127.59c0.051-17.306-3.43-34.202-10.394-50.074-6.912-15.821-16.896-29.798-29.747-41.574s-27.648-20.48-43.981-26.010c-12.851-4.25-26.061-6.451-39.526-6.451zM304.178 836.25c-0.154 0-0.307 0-0.461 0h-128.358c-6.502 0-12.902-1.382-18.944-4.045-5.939-2.611-11.213-6.4-15.616-11.213-4.454-4.864-7.731-10.445-9.83-16.691s-2.867-12.698-2.253-19.2c13.21-124.723 56.474-246.784 124.979-352.512 62.259-97.997 146.688-182.426 244.378-244.48 105.574-68.454 227.124-111.718 351.745-125.184 5.786-0.819 12.39 0.256 18.534 2.355 6.195 2.048 11.776 5.376 16.742 9.882 4.813 4.403 8.602 9.677 11.213 15.718 2.662 6.042 3.994 12.39 3.942 19.046v128.154c0 0.358 0 0.666 0 1.024 0.307 11.52-3.584 22.579-11.059 31.386-7.475 8.858-17.869 14.592-29.235 16.128-43.52 5.734-86.63 16.486-128 31.949-8.499 3.174-17.562 3.891-26.419 1.997-8.806-1.894-16.794-6.195-23.142-12.493l-54.068-54.067c-12.186-12.237-31.13-14.694-46.080-6.246-112.794 64.102-206.285 157.594-270.438 270.387-8.55 15.053-5.99 33.946 6.195 46.182l54.221 54.17c6.144 6.298 10.496 14.285 12.39 23.142 1.843 8.755 1.178 17.818-1.997 26.214-15.462 41.523-26.214 84.685-32 128.41-1.536 10.957-7.168 21.248-15.821 28.672-8.499 7.322-19.354 11.315-30.618 11.315z" />
<glyph unicode="&#xe914;" glyph-name="search" d="M467.203 108.8c-211.2 0-384 172.8-384 384.001s172.8 384 384 384c211.197 0 383.997-172.8 383.997-384s-172.8-384.001-383.997-384.001zM467.203 787.201c-166.4 0-300.8-134.4-300.8-300.8s134.4-300.801 300.8-300.801c166.4 6.4 300.797 140.801 300.797 307.201 0 160-134.397 294.4-300.797 294.4zM896 19.2c-12.8 0-19.2 6.4-32 12.8l-185.6 185.6c-19.2 19.2-19.2 44.8 0 57.6 19.2 19.2 44.8 19.2 57.6 0l185.6-185.6c19.2-19.2 19.2-44.8 0-57.6-6.4-6.4-12.8-12.8-25.6-12.8z" />
<glyph unicode="&#xe915;" glyph-name="send" d="M467.203 364.801c-6.4 0-19.2 0-25.6 12.8-19.2 19.2-19.2 44.8 0 57.6l467.197 467.2c19.2 19.2 44.8 19.2 57.6 0 19.2-19.2 19.2-44.8 0-57.6l-467.197-467.2c-6.4-12.8-19.2-12.8-32-12.8zM639.997-19.2c-19.2 0-32 12.8-38.4 25.6l-166.4 364.8-364.8 166.4c-19.2 6.4-25.6 25.6-25.6 38.4 0 19.2 12.8 32 25.6 38.4l851.203 300.8c12.8 6.4 32 0.001 44.8-12.799s12.8-25.601 12.8-44.801l-300.8-851.2c-6.4-12.8-19.2-25.6-38.403-25.6zM198.397 569.6l288-128c12.8-6.4 19.2-12.8 19.2-19.2l128-288 236.803 665.6-672.003-230.4z" />
<glyph unicode="&#xe916;" glyph-name="sun" d="M511.996 960c23.564 0 42.667-19.103 42.667-42.667v-85.333c0-23.564-19.103-42.667-42.667-42.667s-42.667 19.103-42.667 42.667v85.333c0 23.564 19.103 42.667 42.667 42.667zM149.88 810.116c16.662 16.662 43.677 16.662 60.34 0l60.586-60.587c16.662-16.662 16.662-43.677 0-60.339s-43.677-16.662-60.34 0l-60.586 60.586c-16.662 16.662-16.662 43.677 0 60.34zM874.112 810.116c16.666-16.662 16.666-43.677 0-60.34l-60.589-60.586c-16.659-16.662-43.674-16.662-60.339 0-16.659 16.662-16.659 43.677 0 60.339l60.589 60.587c16.666 16.662 43.68 16.662 60.339 0zM511.996 618.667c-94.257 0-170.667-76.41-170.667-170.667s76.41-170.669 170.667-170.669c94.257 0 170.666 76.412 170.666 170.669s-76.41 170.667-170.666 170.667zM255.996 448c0 141.385 114.615 256 256 256s255.997-114.615 255.997-256c0-141.382-114.611-256-255.997-256-141.385 0-256 114.618-256 256zM-0.004 448c0 23.564 19.103 42.667 42.667 42.667h85.333c23.564 0 42.667-19.103 42.667-42.667s-19.103-42.667-42.667-42.667h-85.333c-23.564 0-42.667 19.103-42.667 42.667zM853.331 448c0 23.564 19.104 42.667 42.662 42.667h85.338c23.565 0 42.662-19.103 42.662-42.667s-19.098-42.667-42.662-42.667h-85.338c-23.558 0-42.662 19.103-42.662 42.667zM270.806 206.81c16.662-16.659 16.662-43.68 0-60.339l-60.586-60.589c-16.662-16.659-43.677-16.659-60.34 0-16.662 16.666-16.662 43.68 0 60.339l60.586 60.589c16.662 16.666 43.677 16.666 60.34 0zM753.184 206.81c16.666 16.666 43.68 16.666 60.339 0l60.589-60.589c16.666-16.659 16.666-43.674 0-60.339-16.659-16.659-43.674-16.659-60.339 0l-60.589 60.589c-16.659 16.659-16.659 43.68 0 60.339zM511.996 106.669c23.564 0 42.667-19.104 42.667-42.669v-85.331c0-23.565-19.103-42.669-42.667-42.669s-42.667 19.104-42.667 42.669v85.331c0 23.565 19.103 42.669 42.667 42.669z" />
<glyph unicode="&#xe917;" glyph-name="tag" d="M512.013 12.8c-32 0-64 12.8-89.6 38.4l-364.8 364.799c-12.8 12.8-12.8 19.2-12.8 32v428.8c0 19.2 19.2 38.4 38.4 38.4h428.8c12.8 0 19.2-6.4 32-12.8l364.8-364.8c51.2-51.2 51.2-128 0-179.2l-307.2-307.199c-25.6-25.6-57.6-38.4-89.6-38.4zM128.013 467.199l352-351.999c19.2-19.2 44.8-19.2 57.6 0l307.2 307.199c19.2 19.2 19.2 44.8 0 57.6l-352 352h-364.8v-364.8zM300.8 620.8c-25.6 0-44.8 19.2-44.8 38.4s19.2 44.8 44.8 44.8c19.2 0 38.4-19.2 38.4-44.8s-19.2-38.4-38.4-38.4z" />
<glyph unicode="&#xe918;" glyph-name="telegram" d="M956 761.999c12 56-20 78-56 64l-796.001-306c-54-22-52-52-8-66l202-62 471.997 296c22.003 16 44 6 26.003-8l-382.001-344-14-210.003c22 0 30 8 42 20l98 96 205.997-152c38.003-21.997 66.003-9.997 76 34.003l134.003 637.999z" />
<glyph unicode="&#xe919;" glyph-name="templanet" horiz-adv-x="3584" d="M3449.619 614.473v-103.084h75.846v-106.047h-75.846v-130.321c0-31.648 27.238-34.611 75.846-31.648v-100.147c-144.32-14.739-186.304 28.71-186.304 131.795v130.321h-58.886v106.047h58.886v39.636l110.458 63.448zM2992.365 283.104h261.395c2.938 13.997 4.435 28.736 4.435 44.2 0 111.176-79.533 194.39-187.046 194.39-116.333 0-195.859-84.684-195.859-194.39 0-109.71 78.061-194.388 203.974-194.388 69.946 0 124.422 25.766 160.506 75.84l-88.346 50.797c-14.739-16.186-40.512-27.987-70.688-27.987-40.512 0-74.374 13.274-88.371 51.539zM2990.176 365.574c10.31 37.574 38.272 58.191 80.25 58.191 33.146 0 66.259-15.463 78.035-58.191h-158.285zM2574.88 511.256v-34.481c19.898 27.24 56.698 44.919 105.299 44.919 74.381 0 137.696-53.037 137.696-152.435v-226.040h-110.451v209.855c0 45.64-28.71 67.005-64.070 67.005-40.486 0-68.474-23.581-68.474-75.844v-201.016h-110.426v304.512l110.426 63.525zM2272.998 511.386v-34.611c-24.307 27.962-60.384 44.919-109.709 44.919-96.461 0-175.994-84.684-175.994-194.39 0-109.71 79.533-194.388 175.994-194.388 49.325 0 85.402 16.928 109.709 44.915v-34.611h110.451v368.166h-110.451zM2185.376 237.466c-50.797 0-87.622 34.611-87.622 89.838s36.826 89.812 87.622 89.812c50.79 0 87.622-34.585 87.622-89.812s-36.832-89.838-87.622-89.838zM1924.73 680.728v-537.502h-110.458v473.976l110.458 63.526zM1466.010 511.386h-110.458v-514.88l110.458 63.526v117.798c24.301-27.987 60.378-44.915 109.702-44.915 6.394 0 12.73 0.358 18.97 1.107l114.342 65.741c26.547 33.811 42.656 78.138 42.656 127.54 0 109.707-79.507 194.39-175.968 194.39-49.325 0-85.402-16.957-109.702-44.919v34.611zM1553.626 237.466c-50.816 0-87.616 34.611-87.616 89.838s36.8 89.812 87.616 89.812c50.797 0 87.622-34.585 87.622-89.812s-36.826-89.838-87.622-89.838zM837.92 511.334v-33.837c16.928 25.049 49.35 44.197 98.675 44.197 43.45 0 75.84-17.679 96.461-48.604 20.614 29.456 54.477 48.604 106.765 48.604 84.659 0 139.885-60.381 139.885-152.435v-226.040h-110.451v216.479c0 36.801-17.651 60.381-53.011 60.381-36.8 0-57.421-25.772-57.421-69.221v-207.639h-110.451v216.479c0 36.801-17.677 60.381-53.011 60.381-36.826 0-57.44-25.772-57.44-69.221v-207.639h-110.432v304.615l110.432 63.5zM399.086 283.104h261.394c2.938 13.997 4.41 28.736 4.41 44.2 0 111.176-79.531 194.39-187.021 194.39-116.33 0-195.859-84.684-195.859-194.39 0-109.71 78.035-194.388 203.951-194.388 69.942 0 124.447 25.766 160.529 75.84l-88.371 50.797c-14.716-16.186-40.486-27.987-70.69-27.987-40.486 0-74.349 13.274-88.343 51.539zM396.87 365.574c10.308 37.574 38.296 58.191 80.251 58.191 33.142 0 66.283-15.463 78.060-58.191h-158.311zM169.341 614.473v-103.084h75.844v-106.047h-75.844v-130.321c0-31.648 27.266-34.611 75.844-31.648v-100.147c-144.317-14.739-186.272 28.71-186.272 131.795v130.321h-58.912v106.047h58.912v39.584l110.428 63.5z" />
<glyph unicode="&#xe91a;" glyph-name="twitter" d="M918.003 656c40 30 75.994 66 104 108-36.006-16-78.003-28-120-32 43.994 26 75.994 66 91.994 116-40-24-85.997-42-131.994-52-40 42-94.003 66-154.003 66-116 0-210-94-210-210 0-16 2-32 6-48-174 10-330 94-434 220-18-30-28-66-28-106 0-72 36-136 94-174-34 2-68 10-96 26v-2c0-102 72-186 168-206-16-4-36-8-54-8-14 0-26 2-40 4 26-84.003 104-143.997 196-146-72-56-162-90.003-260-90.003-18 0-34 2.003-50 4.006 92-60.006 202-94.003 322-94.003 386 0 596.003 318 596.003 596 0 10 0 18 0 28z" />
<glyph unicode="&#xe91b;" glyph-name="youtube" horiz-adv-x="1152" d="M1099.302 711.834c-12.563 47.3-49.574 84.552-96.57 97.194-85.178 22.972-426.739 22.972-426.739 22.972s-341.56 0-426.742-22.972c-46.994-12.644-84.006-49.894-96.568-97.194-22.824-85.734-22.824-264.611-22.824-264.611s0-178.878 22.824-264.612c12.562-47.296 49.574-82.995 96.568-95.642 85.182-22.97 426.742-22.97 426.742-22.97s341.562 0 426.739 22.97c46.995 12.646 84.006 48.346 96.57 95.642 22.822 85.734 22.822 264.612 22.822 264.612s0 178.876-22.822 264.611zM464.284 284.819v324.811l285.476-162.41-285.476-162.401z" />
<glyph unicode="&#xe91c;" glyph-name="scroll" horiz-adv-x="704" d="M632.202 282.227c0-152.211-125.451-275.61-280.202-275.61s-280.202 123.398-280.202 275.61v331.543c0 152.215 125.451 275.609 280.202 275.609s280.202-123.394 280.202-275.609v-331.543zM352 960c-194.404 0-352-155.012-352-346.23v-331.543c0-191.213 157.596-346.227 352-346.227s352 155.014 352 346.227v331.543c0 191.217-157.596 346.23-352 346.23zM352 704c17.673 0 32-17.549 32-39.196v-177.608c0-21.647-14.327-39.196-32-39.196s-32 17.549-32 39.196v177.608c0 21.647 14.327 39.196 32 39.196z" />
<glyph unicode="&#xe91d;" glyph-name="user" d="M942.771 309.978c-33.933 29.82-75.091 55.585-122.336 76.577-20.192 8.968-43.827-0.125-52.794-20.313-8.973-20.188 0.122-43.82 20.314-52.796 39.834-17.702 74.163-39.085 102.016-63.565 34.336-30.17 54.029-73.856 54.029-119.885v-73.997c0-22.054-17.946-40-40-40h-784c-22.054 0-40 17.946-40 40v73.997c0 46.029 19.695 89.715 54.031 119.885 40.414 35.514 158.164 118.118 377.969 118.118 163.213 0 296 132.789 296 296s-132.787 296-296 296c-163.211 0-296-132.789-296-296 0-95.414 45.391-180.414 115.703-234.578-128.656-28.282-208.687-82.719-250.476-119.444-51.618-45.35-81.227-110.944-81.227-179.981v-73.997c0-66.17 53.828-120 120-120h784c66.17 0 120 53.83 120 120v73.997c0 69.037-29.606 134.63-81.229 179.981zM296 664c0 119.101 96.899 216 216 216s216-96.899 216-216c0-119.101-96.899-216-216-216s-216 96.899-216 216z" />
<glyph unicode="&#xe91e;" glyph-name="arrow-horizontal-short" horiz-adv-x="3891" d="M83.029 505.552c-26.66-26.659-26.66-69.884 0-96.543l434.446-434.444c26.659-26.665 69.884-26.665 96.543 0 26.659 26.658 26.66 69.885 0 96.543l-317.908 317.906 3508.342 4.759c37.67 0.051 68.171 30.6 68.171 68.267v0c0 37.738-30.618 68.317-68.355 68.266l-3508.158-4.758 317.908 317.908c26.66 26.659 26.66 69.884 0 96.543s-69.883 26.66-96.543 0l-434.446-434.446z" />
<glyph unicode="&#xe91f;" glyph-name="slider-horizontal-long" horiz-adv-x="8384" d="M7921.152 939.636l442.496-442.472c27.136-27.152 27.136-71.175 0-98.327l-442.496-442.472c-27.136-27.155-71.168-27.155-98.304 0-27.136 27.149-27.136 71.174 0 98.33l323.776 323.778h-8036.432c-38.399 0-69.528 31.128-69.528 69.528s31.129 69.528 69.528 69.528h8036.432l-323.776 323.781c-27.136 27.152-27.136 71.175 0 98.327s71.168 27.152 98.304 0z" />
<glyph unicode="&#xe920;" glyph-name="long-arrow" horiz-adv-x="2289" d="M10.949 448.017c0 48.388 39.227 87.615 87.615 87.615h2102.759c48.387 0 87.612-39.226 87.612-87.615s-39.225-87.615-87.612-87.615h-2102.759c-48.389 0-87.615 39.227-87.615 87.615zM1745.107 904.22c34.214 34.216 89.69 34.216 123.904 0l394.27-394.267c34.214-34.216 34.214-89.69 0-123.906l-394.27-394.269c-34.214-34.214-89.69-34.214-123.904 0-34.214 34.22-34.214 89.69 0 123.91l332.312 332.312-332.312 332.315c-34.214 34.215-34.214 89.69 0 123.906z" />
<glyph unicode="&#xe921;" glyph-name="arrow-vertical-long" horiz-adv-x="127" d="M122.161-6.013l-53.857-53.857c-3.305-3.3-8.663-3.3-11.968 0l-53.857 53.857c-3.305 3.309-3.305 8.666 0 11.966 3.305 3.309 8.663 3.309 11.968 0l39.41-39.403v978.177c0 4.674 3.789 8.463 8.463 8.463v0c4.674 0 8.463-3.789 8.463-8.463v-978.177l39.41 39.403c3.305 3.309 8.663 3.309 11.968 0 3.305-3.3 3.305-8.657 0-11.966z" />
<glyph unicode="&#xe922;" glyph-name="arrow-vertical-short" horiz-adv-x="274" d="M121.725 954.643c7.141 7.141 18.719 7.141 25.86 0l116.369-116.37c7.141-7.141 7.141-18.719 0-25.86s-18.719-7.141-25.86 0l-85.154 85.154-1.275-939.734c-0.014-10.090-8.196-18.262-18.286-18.262v0c-10.109 0-18.299 8.203-18.286 18.311l1.275 939.685-85.154-85.154c-7.141-7.141-18.719-7.141-25.86 0s-7.141 18.719 0 25.86l116.37 116.37z" />
<glyph unicode="&#xe923;" glyph-name="quality" d="M1019.584 321.815c-15.021-119.396-66.17-229.181-147.904-317.514-0.064-0.051-0.115-0.115-0.173-0.179l-51.962-55.456c-7.872-8.41-18.528-12.659-29.203-12.659-9.805 0-19.622 3.59-27.341 10.816-16.115 15.104-16.947 40.416-1.837 56.544l51.885 55.373c70.266 75.968 114.24 170.387 127.162 273.060 2.758 21.914 22.758 37.452 44.678 34.694s37.453-22.765 34.694-44.679zM864.064 363.478l0.205 375.222c0 0.399-0.013 0.797-0.019 1.196-0.314 10.562 3.443 20.492 10.56 27.968 7.206 7.555 17.12 11.883 27.917 12.203 10.874 0.313 21.133-3.46 28.877-10.632 7.494-6.945 11.84-16.414 12.262-26.71l0.045-216.692c0-22.086 17.914-39.992 40-39.992h0.013c22.093 0 39.994 17.914 39.987 40.007l-0.038 217.372c0 0.383-0.006 0.774-0.026 1.164-0.934 32.109-14.387 61.78-37.869 83.538-23.232 21.516-53.626 32.851-85.587 31.914-32-0.938-61.645-14.062-83.482-36.968s-33.414-53.023-32.653-84.866l-0.141-268.957c-43.744 15.273-94.406 4.39-127.91-31.812l-142.817-155.492-145.279 155.601c-33.452 36.156-84.163 47.007-127.935 31.656l-0.141 269.004c0.765 32.007-11.398 62.319-34.289 85.421-22.343 22.547-52.187 35.484-84.038 36.413-32.132 0.945-62.327-10.563-85.085-32.382-22.523-21.594-35.445-51.101-36.382-83.069-0.016-0.39-0.016-0.781-0.016-1.172l-0.062-337.636c-3.281-150.645 50.070-293.212 150.256-401.474 0.055-0.058 0.109-0.115 0.164-0.179l51.968-55.456c7.875-8.41 18.523-12.659 29.195-12.659 9.804 0 19.633 3.59 27.343 10.816 16.125 15.098 16.945 40.416 1.844 56.538l-51.882 55.373c-86.054 93.030-131.827 215.789-128.897 345.699 0.008 0.297 0.015 0.594 0.015 0.89l0.055 337.402c0.429 10.664 4.593 20.304 11.765 27.171 5.062 4.86 13.914 10.586 27.375 10.164 11.070-0.32 21.843-4.968 29.555-12.758 7.476-7.539 11.429-17.281 11.132-27.413-0.015-0.399-0.023-0.797-0.023-1.196l0.203-377.167c-0.219-4.657-0.148-9.328 0.18-13.976 0.023-0.336 0.039-0.68 0.078-1.016 2.031-25.969 12.445-51.462 31.468-72.012 0.070-0.070 0.133-0.141 0.195-0.211l136.717-145.67c15.125-16.109 40.437-16.909 56.547-1.792s16.914 40.435 1.789 56.544l-136.6 145.54c-6.227 6.765-9.64 15.124-10.367 23.648v6.75c0.788 9.624 5 18.992 12.625 26.054 16.195 14.976 41.554 13.999 56.648-2.321l204.442-218.968c16.734-18.093 25.43-41.606 24.484-66.234-0.953-24.614-11.437-47.392-29.53-64.134l-30.641-28.365c-16.218-15.002-17.195-40.307-2.188-56.525 7.883-8.518 18.609-12.838 29.367-12.838 9.718 0 19.468 3.526 27.164 10.65l30.648 28.365c69.71 64.506 73.928 173.709 9.297 243.546l-4.406 4.717 146.883 159.912c14.982 16.188 40.339 17.172 56.531 2.188 7.014-6.484 11.366-15.078 12.506-24.452l-0.006-9.727c-0.992-8.312-4.518-16.078-10.317-22.343-0.16-0.188-0.333-0.367-0.499-0.555l-87.053-97.663c-14.694-16.493-13.242-41.779 3.251-56.486 7.622-6.797 17.133-10.131 26.598-10.131 11.008 0 21.978 4.518 29.875 13.382l86.822 97.414c22.97 24.986 33.28 57.179 31.328 88.662zM310.039 668.061v151.982c0 30.648 17.093 58.109 44.609 71.663l121.998 60.108c22.164 10.914 48.632 10.914 70.796 0l121.998-60.108c27.514-13.555 44.614-41.015 44.614-71.663v-151.974c0-30.641-17.088-58.101-44.608-71.663l-121.997-60.116c-11.085-5.46-23.242-8.195-35.405-8.195s-24.32 2.735-35.406 8.195l-121.99 60.116c-27.516 13.555-44.609 41.015-44.609 71.656zM390.038 668.061l82.007-40.351v112.077l-82.007 39.195v-110.92zM634.081 668.162l-0.024 110.764-82.006-39.148v-112.006l82.030 40.39zM439.201 844.16l72.851-34.82 72.96 34.828-72.921 35.875-72.89-35.882z" />
<glyph unicode="&#xe924;" glyph-name="cooperation" d="M975.002 65.043c-21.632-4.493-35.533-25.664-31.040-47.302 0.224-1.075-0.621-1.715-0.653-1.741h-391.565c0.094 0.41 0.219 0.8 0.305 1.21 19.203 92.512 101.615 159.654 195.958 159.654 42.259 0 82.579-12.922 116.627-37.363 17.946-12.883 42.938-8.781 55.808 9.171 12.896 17.946 8.787 42.944-9.158 55.827-14.95 10.726-30.758 19.872-47.232 27.373 24.819 27.635 39.955 64.141 39.955 104.126 0 86.017-69.978 155.995-156 155.995-86.016 0-155.997-69.978-155.997-155.995 0-40.081 15.196-76.657 40.118-104.312-22.164-10.086-43.055-23.066-62.040-38.72-22.781-18.797-42.344-41.030-58.079-65.664-15.735 24.634-35.298 46.867-58.087 65.664-18.625 15.366-39.094 28.154-60.79 38.15 24.172 27.482 38.876 63.482 38.876 102.881 0 86.017-69.985 155.995-156.003 155.995s-156.002-69.978-156.002-155.995c0-39.4 14.711-75.4 38.883-102.881-21.704-10.003-42.173-22.784-60.798-38.15-49.227-40.602-83.446-97.248-96.368-159.494-0.938-4.512-1.484-9.043-1.656-13.549-0.75-19.552 5.57-38.752 18.141-54.195 15.375-18.893 38.149-29.728 62.493-29.728h862.611c24.211 0 46.925 10.842 62.317 29.76 15.616 19.187 21.69 44.064 16.672 68.25-4.493 21.626-25.67 35.514-47.296 31.034v0zM748.006 411.999c41.907 0 76-34.094 76-76.001 0-41.905-34.093-75.998-76-75.998s-76.006 34.093-76.006 75.998c0 41.907 34.099 76.001 76.006 76.001zM276.005 409.999c41.907 0 76.001-34.094 76.001-76.001 0-41.908-34.094-76.001-76.001-76.001s-76.001 34.093-76.001 76.001c0 41.907 34.095 76.001 76.001 76.001zM80.479 16.019c0 0-0.617 0.294-0.429 1.19 19.203 92.512 101.611 159.654 195.956 159.654s176.753-67.142 195.956-159.654c0.086-0.41 0.211-0.8 0.313-1.21h-391.576c-0.132 0-0.203 0.006-0.219 0.019zM64.635 615.26c40.579-36.922 94.337-57.258 151.37-57.258 25.375 0 49.884 3.914 73.087 11.649l86.783-38.251c5.187-2.289 10.68-3.398 16.125-3.398 10.195 0 20.234 3.891 27.852 11.281 11.688 11.329 15.344 28.618 9.242 43.712l-28.742 71.087c20.547 31.383 31.657 67.821 31.657 104.829 0 110.877-96.9 201.089-216.003 201.089s-215.995-90.212-215.995-201.089v-0.492c-0.008-54.391 22.946-105.228 64.626-143.158zM80.003 758.911c0 66.767 61.009 121.088 136.002 121.088s136.002-54.321 136.002-121.088c0-26.609-9.547-51.868-27.602-73.048-9.665-11.344-12.227-27.117-6.641-40.938l0.234-0.594-11.594 5.117c-10.125 4.461-21.649 4.531-31.828 0.188-18.102-7.727-37.805-11.641-58.571-11.641-74.993 0-136.002 54.024-136.002 120.424v0.492zM808.006 960c-119.104 0-216.004-90.205-216.004-201.081 0-37.016 11.11-73.455 31.657-104.838l-28.735-71.087c-6.102-15.094-2.453-32.383 9.242-43.712 7.617-7.383 17.656-11.281 27.844-11.281 5.446 0 10.94 1.109 16.124 3.398l86.784 38.251c23.206-7.735 47.712-11.649 73.088-11.649 57.037 0 110.79 20.336 151.379 57.267 41.67 37.922 64.621 88.759 64.621 143.15v0.5c0 110.876-96.896 201.081-216 201.081zM944.006 758.419c0-66.399-61.005-120.424-136-120.424-20.768 0-40.474 3.922-58.573 11.641-5.018 2.141-10.362 3.203-15.693 3.203-5.504 0-11.002-1.133-16.134-3.391l-11.597-5.117 0.237 0.594c5.587 13.821 3.034 29.594-6.643 40.938-18.054 21.18-27.603 46.438-27.603 73.048 0 66.767 61.011 121.088 136.006 121.088s136-54.321 136-121.088v-0.492z" />
<glyph unicode="&#xe925;" glyph-name="hourglass" horiz-adv-x="896" d="M260.158 160.243c-0.336-0.358-0.672-0.717-1.002-1.075-20.236-21.766-4.724-57.165 25.008-57.165h327.673c29.731 0 45.245 35.398 25.012 57.165-0.332 0.358-0.666 0.717-1.002 1.075-30.424 32.525-144.94 129.158-146.414 130.426-23.844 20.448-59.018 20.448-82.86 0-1.474-1.267-115.99-97.901-146.414-130.426zM604.254 478.194c9.534 8.294 20.436 17.458 31.98 27.162 85.148 71.578 201.769 169.606 201.769 272.644v62c0 66.168-53.837 120-120 120h-540.003c-66.168 0-120-53.832-120-120v-62c0-103.038 116.616-201.066 201.766-272.646 11.544-9.704 22.446-18.868 31.98-27.162 9.058-7.882 14.254-18.886 14.254-30.194 0-11.306-5.194-22.31-14.254-30.192-9.534-8.294-20.436-17.458-31.98-27.162-85.149-71.578-201.766-169.607-201.766-272.641v-62.003c0-66.17 53.832-120 120-120h540.003c66.163 0 120 53.83 120 120 0 22.093-17.914 40-40 40-22.093 0-40-17.907-40-40 0-22.054-17.946-40-40-40h-540.003c-22.056 0-40 17.946-40 40v62.003c0 65.773 108.448 156.934 173.242 211.405 11.81 9.926 22.966 19.304 33.012 28.044 26.53 23.082 41.746 56.086 41.746 90.548 0 34.464-15.216 67.468-41.744 90.55-10.046 8.738-21.202 18.116-33.012 28.044-64.796 54.468-173.244 145.63-173.244 211.406v62c0 22.056 17.944 40 40 40h540.003c22.054 0 40-17.944 40-40v-62c0-65.776-108.448-156.938-173.245-211.406-11.811-9.926-22.966-19.304-33.012-28.044-26.53-23.082-41.746-56.086-41.746-90.55s15.216-67.468 41.744-90.548c10.47-9.106 22.134-18.87 34.484-29.208 38.916-32.577 83.020-69.492 117.836-108.775 14.65-16.531 39.93-18.054 56.467-3.405 16.531 14.656 18.054 39.936 3.405 56.467-38.765 43.738-87.334 84.393-126.36 117.059-12.048 10.086-23.43 19.612-33.322 28.218-9.058 7.882-14.254 18.886-14.254 30.192s5.196 22.312 14.254 30.194zM491.22 589.53c0.722 0.63 28.644 24.614 60.438 52.744 24.918 22.046 9.578 63.726-23.456 63.726h-156.404c-33.034 0-48.374-41.68-23.456-63.726 31.795-28.132 59.716-52.114 60.438-52.744 23.722-20.706 58.716-20.706 82.44 0z" />
<glyph unicode="&#xe926;" glyph-name="money" d="M266.852 406.835c22.058 0 39.94 17.882 39.94 39.94s-17.882 39.94-39.94 39.94c-22.058 0-39.94-17.882-39.94-39.94s17.882-39.94 39.94-39.94zM995.034 587.489c-14.848 16.312-40.102 17.502-56.416 2.654s-17.504-40.108-2.656-56.42c5.293-5.818 7.866-14.442 7.866-26.37 0-20.758-7.949-27.944-15.731-32.237-8.883-4.902-19.635-6.252-23.219-6.37h-27.072c-16.090 75.528-55.898 138.411-117.453 184.493-27.994 20.952-60.013 38.098-95.437 51.258 15.085 25.794 23.302 55.409 23.302 85.761-0.006 93.596-76.15 169.741-169.745 169.741s-169.743-76.146-169.743-169.743c0-9.98 0.882-19.886 2.606-29.61-45.298 38.406-101.346 59.462-165.058 61.537-14.4 0.452-27.917-6.842-35.408-19.138s-7.784-27.67-0.768-40.244c0.314-0.56 28.288-51.22 38.886-111.581-40.32-37.394-59.358-79.548-73.736-111.379-5.374-11.902-12.576-27.85-17.212-33.158h-56.846c-22.058 0-39.94-17.88-39.94-39.94v-159.755c0-22.061 17.88-39.942 39.94-39.942h41.714c22.164-51.699 57.136-97.062 102.844-133.434l-13.244-32.122c-12.198-29.594-12.146-62.157 0.152-91.706s35.364-52.544 64.952-64.742c14.894-6.138 30.322-9.043 45.514-9.043 47.11 0.006 91.887 27.962 110.927 74.15l14.322 34.739c19.988-2.323 40.334-3.501 60.804-3.501h2.73c32.24 0 63.53 2.266 93.414 6.746l15.658-37.984c25.182-61.075 95.359-90.285 156.441-65.107 29.587 12.198 52.659 35.194 64.954 64.742s12.352 62.112 0.154 91.706l-29.005 70.342c-8.41 20.397-31.75 30.112-52.147 21.702s-30.112-31.757-21.702-52.147l28.998-70.342c4.070-9.862 4.051-20.723-0.051-30.573-4.096-9.85-11.782-17.517-21.651-21.581-20.358-8.39-43.75 1.344-52.147 21.702l-27.944 67.782c-7.35 17.837-26.394 27.859-45.254 23.84-34.078-7.27-70.996-10.95-109.724-10.95h-2.73c-26.78 0-53.236 2.355-78.64 7.002-18.538 3.386-36.928-6.637-44.112-24.064l-26.224-63.61c-8.396-20.358-31.788-30.093-52.147-21.702-9.864 4.064-17.552 11.731-21.652 21.581s-4.118 20.704-0.050 30.573l25.21 61.146c7.276 17.645 1.046 37.971-14.866 48.512-52.46 34.758-89.9 82.733-108.272 138.733-5.374 16.399-20.682 27.487-37.942 27.487h-29.342v79.88h18.618c52.093 0 72.166 44.446 88.296 80.158 14.336 31.741 30.584 67.718 67.804 96.278 10.97 8.42 16.806 21.91 15.426 35.668-3.282 32.724-11.373 63.88-20.2 90.017 31.862-12.648 58.916-34.109 80.84-64.22 8.954-12.3 24.116-18.446 39.106-15.844 29.076 5.037 62.1 7.594 98.152 7.594h2.73c78.381 0 334.124-19.296 334.124-267.595 0-22.336-2.15-43.714-6.387-63.542-4.614-21.574 9.139-42.797 30.707-47.405 21.555-4.595 42.797 9.139 47.405 30.707 5.414 25.308 8.154 52.303 8.154 80.241h19.309c4.851 0 30.413 0.678 57.133 14.034 39.565 19.78 61.357 56.876 61.357 104.452 0 31.82-9.914 59.53-28.672 80.141zM582.172 726.869c-34.672 6.274-71.558 9.47-110.262 9.47h-2.73c-7.564 0-15.024-0.104-22.374-0.308-11.768 15.542-18.198 34.614-18.198 54.226 0 49.552 40.312 89.864 89.864 89.864s89.864-40.312 89.864-89.864c0-24.094-9.262-46.45-26.164-63.388z" />
</font>
</defs>
</svg>
